<?xml version="1.0" standalone="no"?>
<!DOCTYPE svg PUBLIC "-//W3C//DTD SVG 20010904//EN"
 "http://www.w3.org/TR/2001/REC-SVG-20010904/DTD/svg10.dtd">
<svg version="1.0" xmlns="http://www.w3.org/2000/svg"
 width="268.000000pt" height="268.000000pt" viewBox="0 0 268.000000 268.000000"
 preserveAspectRatio="xMidYMid meet">
<metadata>
Created by potrace 1.11, written by Peter Selinger 2001-2013
</metadata>
<g transform="translate(0.000000,268.000000) scale(0.100000,-0.100000)"
fill="#000000" stroke="none">
<path d="M53 2653 c-10 -4 -13 -272 -13 -1294 l0 -1290 23 -8 c12 -5 35 -6 51
-4 21 3 26 1 20 -9 -6 -10 -5 -11 7 -2 20 15 122 17 113 2 -5 -7 -2 -8 7 -2
23 14 62 17 53 3 -5 -8 -3 -9 7 -3 8 5 25 10 37 12 17 2 22 -1 16 -10 -6 -10
-4 -10 7 -2 20 15 122 17 113 2 -5 -7 -2 -8 7 -2 23 14 62 17 53 3 -5 -8 -3
-9 7 -3 8 5 25 10 37 12 17 2 22 -1 16 -10 -6 -10 -4 -10 7 -2 20 15 122 17
113 2 -5 -7 -2 -8 7 -2 23 14 62 17 53 3 -5 -8 -3 -9 7 -3 8 5 25 10 37 12 17
2 22 -1 16 -10 -6 -10 -4 -10 7 -2 20 15 122 17 113 2 -5 -7 -2 -8 7 -2 23 14
62 17 53 3 -5 -8 -3 -9 7 -3 8 5 25 10 37 12 17 2 22 -1 16 -10 -6 -10 -4 -10
7 -2 20 15 122 17 113 2 -5 -7 -2 -8 7 -2 23 14 62 17 53 3 -5 -8 -3 -9 7 -3
8 5 25 10 37 12 17 2 22 -1 16 -10 -6 -10 -4 -10 7 -2 20 15 122 17 113 2 -5
-7 -2 -8 7 -2 23 14 62 17 53 3 -5 -8 -3 -9 7 -3 8 5 25 10 37 12 17 2 22 -1
16 -10 -6 -10 -4 -10 7 -2 20 15 122 17 113 2 -5 -7 -2 -8 7 -2 23 14 62 17
53 3 -5 -8 -3 -9 7 -3 8 5 25 10 37 12 17 2 22 -1 16 -10 -6 -10 -4 -10 7 -2
20 15 122 17 113 2 -5 -7 -2 -8 7 -2 23 14 62 17 53 3 -5 -8 -3 -9 7 -3 8 5
25 10 37 12 17 2 22 -1 16 -10 -6 -10 -4 -10 7 -2 20 15 122 17 113 2 -5 -7
-2 -8 7 -2 23 14 62 17 53 3 -5 -8 -3 -9 7 -3 8 5 25 10 37 12 17 2 22 -1 16
-10 -6 -10 -4 -10 7 -2 20 15 122 17 113 2 -5 -7 -2 -8 7 -2 23 14 62 17 53 3
-5 -8 -3 -9 7 -3 22 14 62 17 54 4 -4 -7 1 -6 14 2 17 11 25 11 42 0 12 -8 18
-9 15 -4 -3 5 3 12 14 15 20 5 20 16 20 1285 0 704 -3 1287 -6 1296 -6 14
-128 16 -1288 15 -704 0 -1287 -3 -1293 -6z"/>
</g>
</svg>
